<svg xmlns="http://www.w3.org/2000/svg" viewBox="0 0 1736.64 1736.64"><defs><style>.cls-1{fill:#af7f13;}.cls-2{fill:#1d1d1b;}.cls-3{fill:#13612c;}.cls-4{fill:#040907;}.cls-5{fill:#926f39;}.cls-10,.cls-5,.cls-6,.cls-7,.cls-8,.cls-9{stroke:#000;stroke-miterlimit:10;stroke-width:5px;}.cls-6{fill:#b68e5b;}.cls-7{fill:#db712c;}.cls-8{fill:#6b3714;}.cls-9{fill:#93552a;}.cls-10{fill:none;}</style></defs><g id="Layer_2" data-name="Layer 2"><g id="Layer_2-2" data-name="Layer 2"><rect class="cls-1" x="2.5" y="2.5" width="1731.64" height="1731.64" rx="121.23"/><path class="cls-2" d="M1612.91,5a119.09,119.09,0,0,1,118.73,118.73V1612.91a119.09,119.09,0,0,1-118.73,118.73H123.73A119.09,119.09,0,0,1,5,1612.91V123.73A119.09,119.09,0,0,1,123.73,5H1612.91m0-5H123.73C55.68,0,0,55.68,0,123.73V1612.91c0,68,55.68,123.73,123.73,123.73H1612.91c68,0,123.73-55.68,123.73-123.73V123.73C1736.64,55.68,1681,0,1612.91,0Z"/><rect class="cls-3" x="89.33" y="89.33" width="1557.98" height="1557.98" rx="108.86"/><path class="cls-4" d="M1538.45,91.83a106.7,106.7,0,0,1,106.36,106.36V1538.45a106.7,106.7,0,0,1-106.36,106.36H198.19A106.7,106.7,0,0,1,91.83,1538.45V198.19A106.7,106.7,0,0,1,198.19,91.83H1538.45m0-5H198.19c-61.25,0-111.36,50.11-111.36,111.36V1538.45c0,61.25,50.11,111.36,111.36,111.36H1538.45c61.25,0,111.36-50.11,111.36-111.36V198.19c0-61.25-50.11-111.36-111.36-111.36Z"/><path class="cls-5" d="M868.32,1021.81v585.61c-351.33-128.83-443-502.29-469.76-732.51-5-43.06-7.2-83.48-7.79-119.39l447.09,258.13a58.72,58.72,0,0,0,8.52,4.06A60.57,60.57,0,0,0,868.32,1021.81Z"/><path class="cls-6" d="M1345.87,755.52c-.59,35.91-2.79,76.33-7.79,119.39-26.72,230.22-118.43,603.68-469.76,732.51V1021.81a60.65,60.65,0,0,0,24.25-5h0a58.85,58.85,0,0,0,6.2-3.11Z"/><path class="cls-7" d="M1420.22,491v-.91l-155.35,90.31L1231.06,600,895.88,794.9h0a60.93,60.93,0,0,1-58-1.58L503.08,600h0L470.4,581.18,322.84,496a28.83,28.83,0,0,1,0-49.93l515-297.35a61,61,0,0,1,60.93,0l515,297.35a28.86,28.86,0,0,1,6.42,44.93Z"/><path class="cls-8" d="M868.32,801.49v220.32a60.57,60.57,0,0,1-21.94-4.1L390.75,754.65c0,.29,0,.58,0,.87L322.84,716.3a28.55,28.55,0,0,1-14.41-25V471a28.55,28.55,0,0,0,14.41,25l147.56,85.2L503.07,600h0L837.86,793.33A60.9,60.9,0,0,0,868.32,801.49Z"/><path class="cls-9" d="M1428.22,471V691.33a28.56,28.56,0,0,1-14.42,25l-67.93,39.22L898.79,1013.65a59.68,59.68,0,0,1-6.19,3.11h0a60.62,60.62,0,0,1-24.25,5V801.49a60.91,60.91,0,0,0,27.55-6.58h0c1-.49,1.94-1,2.9-1.57L1233.57,600l32.67-18.86L1413.8,496a28.61,28.61,0,0,0,14.42-25Z"/><ellipse class="cls-10" cx="868.32" cy="323.6" rx="82.08" ry="46.62"/><path class="cls-8" d="M868.32,370.22V505.37c-45.33,0-82.08-20.87-82.08-46.62V323.6C786.24,349.35,823,370.22,868.32,370.22Z"/><path class="cls-9" d="M950.4,323.6V458.75c0,25.75-36.75,46.62-82.08,46.62V370.22C913.65,370.22,950.4,349.35,950.4,323.6Z"/><line class="cls-10" x1="868.32" y1="276.98" x2="868.32" y2="275.69"/></g></g></svg>